<?xml version="1.0" encoding="UTF-8"?>
<svg id="Layer_1" data-name="Layer 1" xmlns="http://www.w3.org/2000/svg" viewBox="0 0 585.17 130.97">
  <defs>
    <style>
      .cls-1 {
        fill: #fff;
      }
    </style>
  </defs>
  <g>
    <path class="cls-1" d="M97.94.18h-32.65C47.26.18,30.94,7.48,19.12,19.28,7.31,31.08,0,47.38,0,65.39c0,36.01,29.23,65.2,65.29,65.2h32.65c18.02,0,32.64-14.6,32.64-32.61V32.78C130.58,14.78,115.96.18,97.94.18ZM65.29,108.18c-23.67,0-42.85-19.16-42.85-42.79s19.18-42.79,42.85-42.79,42.85,19.16,42.85,42.79-19.18,42.79-42.85,42.79Z"/>
    <ellipse class="cls-1" cx="79.98" cy="50.72" rx="8.16" ry="8.15"/>
    <path class="cls-1" d="M247.23,4.97c-2.96-2.96-7.04-4.79-11.56-4.79-9.03,0-16.35,7.32-16.35,16.35v98.09c0,9.03,7.32,16.35,16.35,16.35s16.34-7.32,16.34-16.35V16.53c0-4.52-1.83-8.6-4.79-11.56ZM243.84,65.58c0,4.51-3.66,8.18-8.17,8.18s-8.18-3.66-8.18-8.18v-32.7c0-4.51,3.66-8.17,8.18-8.17,2.26,0,4.3.92,5.77,2.39s2.39,3.52,2.39,5.77v32.7Z"/>
    <path class="cls-1" d="M195.22,0c-8.87,0-16.06,7.19-16.06,16.07v77.96c0,2.45-2,4.44-4.44,4.44s-4.44-1.99-4.44-4.44V16.07c0-8.88-7.19-16.07-16.07-16.07s-16.07,7.19-16.07,16.07v77.96c0,20.17,16.41,36.57,36.57,36.57s36.57-16.4,36.57-36.57V16.07c0-8.88-7.19-16.07-16.07-16.07ZM162.1,48.38c0,4.43-3.59,8.03-8.03,8.03s-8.03-3.6-8.03-8.03V16.25c0-4.43,3.59-8.03,8.03-8.03,2.22,0,4.23.9,5.68,2.35s2.35,3.46,2.35,5.68v32.13ZM203.26,80.51c0,4.43-3.59,8.03-8.03,8.03s-8.03-3.59-8.03-8.03v-32.13c0-4.43,3.6-8.03,8.03-8.03,2.22,0,4.23.9,5.68,2.35,1.45,1.46,2.35,3.46,2.35,5.68v32.13Z"/>
  </g>
  <g>
    <path class="cls-1" d="M332.58,56.61c0,1.23-.23,2.43-.69,3.59-.46,1.17-1.21,2.27-2.26,3.31-1.72,1.78-3.73,3.35-6.03,4.69-2.3,1.35-4.77,2.47-7.41,3.36-2.64.89-5.4,1.55-8.29,1.98-2.88.43-5.77.64-8.65.64-4.79,0-9.39-.92-13.81-2.76s-8.33-4.39-11.74-7.64c-3.41-3.25-6.14-7.15-8.19-11.69-2.06-4.54-3.08-9.51-3.08-14.91s.93-9.97,2.81-14.45c1.87-4.48,4.45-8.39,7.73-11.74,3.28-3.34,7.15-5.98,11.6-7.92,4.45-1.93,9.28-2.9,14.5-2.9,3.5,0,6.81.4,9.94,1.2,3.13.8,5.97,1.75,8.51,2.85,2.55,1.1,4.71,2.27,6.49,3.5,1.78,1.23,3.07,2.24,3.87,3.04,1.04,1.11,1.78,2.23,2.21,3.36.43,1.14.64,2.26.64,3.36,0,1.29-.26,2.52-.78,3.68-.52,1.17-1.23,2.18-2.12,3.04-.89.86-1.9,1.54-3.04,2.02-1.14.49-2.32.74-3.54.74-1.41,0-2.55-.21-3.41-.64-.86-.43-1.93-1.13-3.22-2.12-.55-.43-1.32-.92-2.3-1.47-.98-.55-2.13-1.09-3.45-1.61-1.32-.52-2.81-.95-4.46-1.29-1.66-.34-3.41-.51-5.25-.51-2.15,0-4.28.38-6.4,1.15-2.12.77-4,1.92-5.66,3.45-1.66,1.54-3.01,3.41-4.05,5.62-1.04,2.21-1.56,4.76-1.56,7.64,0,2.09.41,4.19,1.24,6.31.83,2.12,2.07,4.04,3.73,5.75,1.66,1.72,3.73,3.13,6.21,4.23,2.48,1.1,5.35,1.66,8.61,1.66,1.78,0,3.47-.15,5.06-.46,1.6-.31,3.07-.72,4.42-1.24,1.35-.52,2.52-1.07,3.5-1.66.98-.58,1.72-1.15,2.21-1.7.92-1.04,1.95-1.78,3.08-2.21,1.14-.43,2.32-.64,3.54-.64,2.33,0,4.14.49,5.43,1.47,1.29.98,2.24,2.06,2.85,3.22.67,1.41,1.07,2.98,1.2,4.69Z"/>
    <path class="cls-1" d="M390.76,68.03c-.49,1.11-1.15,2.09-1.98,2.95-.83.86-1.8,1.53-2.9,2.02s-2.3.74-3.59.74h-.37c-1.47,0-2.84-.34-4.1-1.01-1.26-.67-2.32-1.53-3.18-2.58-2.27,1.11-4.79,2.06-7.55,2.85-2.76.8-5.68,1.2-8.74,1.2s-5.66-.49-8.15-1.48c-2.48-.98-4.63-2.31-6.44-3.97-1.81-1.66-3.21-3.56-4.19-5.68-.98-2.12-1.47-4.35-1.47-6.69,0-4.06.84-7.2,2.53-9.41,1.69-2.21,3.8-3.84,6.35-4.89,2.55-1.05,5.32-1.66,8.33-1.84,3.01-.18,5.86-.28,8.56-.28h9.48c0-.42-.05-.87-.14-1.35s-.38-.91-.87-1.3c-.49-.39-1.26-.7-2.3-.94-1.05-.24-2.49-.36-4.33-.36-1.53,0-2.96.2-4.28.58-1.32.39-2.58.81-3.77,1.26-1.2.45-2.36.87-3.5,1.26-1.14.39-2.29.58-3.45.58-1.29,0-2.5-.12-3.64-.37-1.14-.24-2.15-.67-3.04-1.28-.89-.61-1.6-1.39-2.12-2.34-.52-.95-.78-2.12-.78-3.53,0-1.59.44-3.01,1.33-4.26.89-1.25,2.06-2.35,3.5-3.3,1.44-.95,3.07-1.74,4.88-2.38,1.81-.64,3.64-1.16,5.48-1.56s3.57-.69,5.2-.87c1.63-.18,3.02-.27,4.19-.27,3.81,0,7.29.43,10.45,1.29,3.16.86,5.88,2.29,8.15,4.28,2.27,1.99,4.03,4.6,5.29,7.83,1.26,3.22,1.89,7.23,1.89,12.01v19.61c0,1.23-.25,2.39-.74,3.5ZM361.02,53.67c-1.17,0-2.09.08-2.76.23-.68.15-1.2.37-1.56.64-.37.28-.61.57-.74.87-.12.31-.18.64-.18,1.01s.06.72.18,1.06c.12.34.37.64.74.92.37.28.89.51,1.56.69.67.18,1.6.28,2.76.28s2.42-.14,3.77-.41c1.35-.28,2.62-.66,3.82-1.15s2.3-1.11,3.31-1.84c1.01-.74,1.79-1.53,2.35-2.39l-13.26.09Z"/>
    <path class="cls-1" d="M477.47,71.16c-1.78,1.72-3.93,2.58-6.44,2.58h-.55c-2.52,0-4.65-.87-6.4-2.62-1.75-1.75-2.62-3.94-2.62-6.58v-21.91c0-.86-.25-1.75-.74-2.67-.49-.92-1.63-1.38-3.41-1.38-1.6,0-2.95.44-4.05,1.33-1.1.89-1.66,2.01-1.66,3.36v21.26c0,2.7-.89,4.91-2.67,6.63s-3.96,2.58-6.54,2.58h-.46c-1.29,0-2.48-.23-3.59-.69-1.1-.46-2.07-1.1-2.9-1.93-.83-.83-1.49-1.81-1.98-2.94s-.74-2.35-.74-3.64v-22.55c0-.8-.31-1.6-.92-2.39-.61-.8-1.9-1.2-3.87-1.2-1.6,0-2.96.49-4.1,1.47-1.14.98-1.7,2.15-1.7,3.5v21.17c0,1.29-.25,2.5-.74,3.64-.49,1.14-1.15,2.12-1.98,2.94-.83.83-1.8,1.47-2.9,1.93-1.11.46-2.24.69-3.41.69h-.55c-1.29,0-2.49-.23-3.59-.69-1.1-.46-2.07-1.1-2.9-1.93-.83-.83-1.47-1.81-1.93-2.94-.46-1.14-.69-2.35-.69-3.64V29.36c0-1.29.23-2.49.69-3.59.46-1.1,1.1-2.07,1.93-2.9.83-.83,1.79-1.47,2.9-1.93s2.3-.69,3.59-.69h.55c1.47,0,2.82.37,4.05,1.1,1.23.74,2.02,1.5,2.39,2.3.43-.43,1.06-.87,1.89-1.33.83-.46,1.73-.87,2.72-1.24.98-.37,1.98-.67,2.99-.92,1.01-.25,1.92-.37,2.72-.37,2.02,0,3.74.14,5.16.41,1.41.28,2.64.63,3.68,1.06,1.04.43,1.95.94,2.72,1.52.77.58,1.55,1.18,2.35,1.8,1.78-1.23,3.87-2.33,6.26-3.31,2.39-.98,4.6-1.47,6.63-1.47,4.85,0,8.8.58,11.87,1.75,3.07,1.17,5.46,2.78,7.18,4.83s2.88,4.48,3.5,7.27c.61,2.79.92,5.79.92,8.98v21.91c0,2.7-.89,4.91-2.67,6.63Z"/>
    <path class="cls-1" d="M551.89,55.64c-.83,3.47-2.39,6.6-4.69,9.39-2.3,2.79-5.51,5.06-9.62,6.81s-9.48,2.62-16.11,2.62-12-.87-16.11-2.62c-4.11-1.75-7.32-4.02-9.62-6.81-2.3-2.79-3.87-5.92-4.69-9.39-.83-3.47-1.24-6.95-1.24-10.45V10.22c0-1.17.26-2.32.78-3.45.52-1.13,1.21-2.12,2.07-2.94.86-.83,1.84-1.5,2.94-2.02,1.11-.52,2.24-.78,3.41-.78h.83c1.17,0,2.29.26,3.36.78s2.04,1.2,2.9,2.02c.86.83,1.55,1.81,2.07,2.94.52,1.14.78,2.29.78,3.45v34.98c0,1.47.18,2.84.55,4.1.37,1.26,1.03,2.33,1.98,3.22.95.89,2.24,1.6,3.87,2.12,1.63.52,3.67.78,6.12.78s4.49-.26,6.12-.78c1.63-.52,2.92-1.23,3.87-2.12.95-.89,1.61-1.96,1.98-3.22.37-1.26.55-2.62.55-4.1V10.22c0-1.17.26-2.32.78-3.45.52-1.13,1.21-2.12,2.07-2.94.86-.83,1.82-1.5,2.9-2.02,1.07-.52,2.19-.78,3.36-.78h.83c1.16,0,2.3.26,3.41.78,1.1.52,2.09,1.2,2.95,2.02.86.83,1.55,1.81,2.07,2.94.52,1.14.78,2.29.78,3.45v34.98c0,3.5-.41,6.98-1.24,10.45Z"/>
    <path class="cls-1" d="M584.43,68.03c-.49,1.11-1.15,2.09-1.98,2.95-.83.86-1.79,1.53-2.9,2.02-1.1.49-2.3.74-3.59.74h-.74c-1.23,0-2.39-.25-3.5-.74-1.11-.49-2.09-1.17-2.95-2.02-.86-.86-1.54-1.84-2.02-2.95-.49-1.1-.74-2.27-.74-3.5V10.22c0-1.29.25-2.49.74-3.59.49-1.11,1.17-2.07,2.02-2.9.86-.83,1.84-1.49,2.95-1.98,1.1-.49,2.27-.74,3.5-.74h.74c2.58,0,4.75.89,6.54,2.67,1.78,1.78,2.67,3.96,2.67,6.54v54.31c0,1.23-.25,2.39-.74,3.5Z"/>
    <path class="cls-1" d="M290.85,91.12c-.11.63-.43,1.17-.97,1.6-.53.44-1.1.66-1.71.66h-1.6c-1.04,0-2,.14-2.88.43-.88.29-1.64.67-2.3,1.15-.66.48-1.19,1.01-1.6,1.58-.41.58-.66,1.15-.74,1.73l-.29,1.93h5.18c.58,0,1.04.2,1.4.62.36.41.48.9.37,1.48l-.04.25c-.11.55-.4,1.04-.86,1.46-.47.42-.99.64-1.56.64h-5.18l-2.01,12.61c-.41,2.58-1.01,4.74-1.79,6.49-.78,1.75-1.62,3.16-2.51,4.23-.89,1.07-1.76,1.84-2.61,2.3-.85.46-1.55.7-2.1.7-.3,0-.6-.04-.9-.12-.3-.08-.56-.21-.78-.39s-.39-.4-.51-.66c-.12-.26-.16-.55-.1-.88.06-.47.2-.84.43-1.13.23-.29.5-.53.8-.72.85-.41,1.63-1.04,2.34-1.89.63-.71,1.25-1.71,1.87-2.98.62-1.27,1.09-2.92,1.42-4.95l2.01-12.61h-4.07c-.55,0-1.01-.21-1.38-.64-.37-.42-.5-.91-.39-1.46l.04-.25c.11-.58.4-1.07.88-1.48.48-.41.99-.62,1.54-.62h4.07l.08-.58c.3-2.05.9-3.77,1.81-5.14s1.97-2.47,3.18-3.29c1.22-.82,2.52-1.4,3.9-1.74,1.38-.34,2.7-.51,3.97-.51h1.64c.63,0,1.13.23,1.5.68.37.45.51.95.43,1.5Z"/>
    <path class="cls-1" d="M311.27,111.21c-.25,1.53-.73,3.01-1.46,4.44-.73,1.43-1.71,2.68-2.94,3.76-1.23,1.08-2.7,1.95-4.4,2.59-1.7.64-3.63.97-5.79.97s-3.99-.32-5.49-.97c-1.49-.64-2.68-1.5-3.55-2.59-.88-1.08-1.47-2.33-1.77-3.76-.3-1.42-.33-2.9-.08-4.44.25-1.56.74-3.05,1.48-4.46s1.72-2.66,2.94-3.74,2.68-1.95,4.38-2.59c1.7-.64,3.64-.97,5.83-.97s4.03.32,5.53.97c1.49.64,2.68,1.5,3.55,2.57.88,1.07,1.45,2.32,1.73,3.74.27,1.43.29,2.92.04,4.48ZM306.67,111.21c.16-1.01.16-1.97-.02-2.88-.18-.9-.55-1.7-1.11-2.38-.56-.68-1.32-1.23-2.28-1.64-.96-.41-2.14-.62-3.53-.62s-2.64.21-3.72.62c-1.08.41-2.01.96-2.79,1.64-.78.68-1.4,1.49-1.87,2.4s-.78,1.87-.94,2.86-.15,1.93.04,2.83c.19.9.57,1.71,1.13,2.4.56.7,1.31,1.25,2.26,1.66.94.41,2.12.62,3.51.62s2.64-.21,3.72-.62c1.08-.41,2.01-.97,2.79-1.66.78-.7,1.4-1.5,1.87-2.4.47-.9.78-1.85.94-2.83Z"/>
    <path class="cls-1" d="M330.83,102.37c-.08.52-.25.92-.51,1.19-.26.27-.54.48-.84.62-.33.16-.7.26-1.11.29-1.21,0-2.29.18-3.27.53-.97.36-1.81.8-2.53,1.33-.71.53-1.28,1.1-1.71,1.71-.43.6-.68,1.15-.76,1.64l-1.73,10.93c-.08.58-.37,1.07-.86,1.48-.49.41-1.01.62-1.56.62h-.29c-.58,0-1.03-.2-1.38-.62-.34-.41-.47-.9-.39-1.48l2.92-18.37c.11-.6.4-1.1.86-1.5s.99-.6,1.56-.6h.25c.58,0,1.04.21,1.4.62.35.41.48.91.37,1.48l-.16.94c1.12-1.15,2.18-1.98,3.18-2.49,1-.51,2.22-.76,3.68-.76h.58c.19,0,.4.01.62.04.58.06,1.03.27,1.36.66s.45.86.37,1.44l-.04.29Z"/>
    <path class="cls-1" d="M369.95,99.83c-.25,1.48-.68,2.81-1.29,4.01-.62,1.19-1.39,2.2-2.32,3.02-.93.82-2.01,1.45-3.25,1.89-1.23.44-2.56.66-3.99.66h-13.85l-1.77,11.22c-.08.55-.36,1.04-.84,1.46s-1.01.64-1.58.64h-.41c-.55,0-1.01-.21-1.38-.64-.37-.42-.51-.91-.43-1.46l4.44-28.02c.11-.63.44-1.18.99-1.64s1.12-.7,1.73-.7h16.15c2.9,0,5.05.85,6.43,2.55,1.38,1.7,1.84,4.04,1.38,7.03ZM365.35,99.83c.08-.6.12-1.2.1-1.79s-.15-1.12-.41-1.6c-.26-.48-.68-.86-1.25-1.15-.58-.29-1.37-.43-2.38-.43h-13.85l-1.56,9.94h13.85c1.01,0,1.86-.18,2.55-.55s1.23-.81,1.64-1.33.72-1.06.92-1.62c.21-.56.34-1.05.39-1.46Z"/>
    <path class="cls-1" d="M374.75,120.62c-.08.55-.36,1.04-.84,1.46-.48.42-1.01.64-1.58.64h-.33c-.57,0-1.03-.2-1.38-.62-.34-.41-.47-.9-.39-1.48l2.92-18.32c.11-.6.4-1.1.86-1.5.47-.4.99-.6,1.56-.6h.33c.58,0,1.03.2,1.38.62.34.41.47.9.39,1.48l-2.92,18.32ZM379.52,93.62c-.14.79-.52,1.46-1.15,1.99-.63.53-1.32.8-2.05.8-.79,0-1.41-.28-1.85-.84-.44-.56-.59-1.21-.45-1.95.14-.74.51-1.38,1.11-1.93.6-.55,1.3-.82,2.1-.82s1.41.26,1.85.78.59,1.18.45,1.97Z"/>
    <path class="cls-1" d="M414.53,96.01c-.11.63-.42,1.16-.94,1.6-.52.44-1.1.66-1.73.66-.71,0-1.25-.26-1.6-.78-.3-.3-.75-.64-1.34-1.03s-1.29-.74-2.1-1.07c-.81-.33-1.73-.61-2.75-.84s-2.13-.35-3.31-.35c-1.48,0-2.99.27-4.54.8-1.55.53-2.98,1.32-4.29,2.36-1.31,1.04-2.45,2.33-3.41,3.86-.96,1.54-1.6,3.3-1.93,5.3-.22,1.42-.16,2.84.19,4.25s.99,2.68,1.93,3.8c.95,1.12,2.2,2.03,3.76,2.73,1.56.7,3.44,1.05,5.63,1.05,1.15,0,2.27-.12,3.35-.35,1.08-.23,2.1-.52,3.04-.86.94-.34,1.79-.72,2.53-1.15s1.33-.84,1.77-1.25c.22-.22.47-.38.76-.47.29-.1.57-.14.84-.14.55,0,.96.12,1.23.35s.47.5.58.8c.11.33.15.7.12,1.11-.08.57-.41,1.14-.99,1.68-.9.82-1.92,1.54-3.06,2.14-1.14.6-2.36,1.11-3.66,1.52-1.3.41-2.66.72-4.07.92-1.41.21-2.84.31-4.29.31-2.16,0-4.2-.4-6.1-1.19-1.9-.79-3.53-1.91-4.87-3.35-1.34-1.44-2.32-3.16-2.94-5.18-.62-2.01-.73-4.25-.35-6.72.38-2.36,1.16-4.56,2.34-6.62,1.18-2.05,2.64-3.85,4.4-5.38,1.75-1.53,3.72-2.74,5.9-3.62,2.18-.88,4.46-1.32,6.84-1.32,1.64,0,3.17.19,4.58.55,1.41.37,2.66.82,3.76,1.36s2.03,1.08,2.79,1.64c.77.56,1.32,1.02,1.64,1.38.27.44.37.93.29,1.48Z"/>
    <path class="cls-1" d="M438.6,120.62c-.08.58-.36,1.07-.84,1.48-.48.41-1.01.62-1.58.62h-.25c-.57,0-1.03-.21-1.35-.64s-.47-.91-.41-1.46l.04-.33c-1.12.82-2.34,1.47-3.64,1.95s-2.66.72-4.09.72c-2.16,0-3.99-.32-5.49-.97-1.49-.64-2.68-1.5-3.55-2.59-.88-1.08-1.47-2.33-1.77-3.76-.3-1.42-.33-2.9-.08-4.44.25-1.56.74-3.05,1.48-4.48.74-1.42,1.72-2.67,2.94-3.74,1.22-1.07,2.68-1.92,4.38-2.57,1.7-.64,3.64-.97,5.83-.97,1.42,0,2.71.24,3.86.72,1.15.48,2.15,1.13,3,1.95l.08-.53c.08-.57.36-1.07.84-1.48.48-.41,1.01-.62,1.58-.62h.25c.58,0,1.04.2,1.4.6.36.4.48.9.37,1.5l-3,19.02ZM436.18,107.92c-.47-1.23-1.27-2.25-2.4-3.04s-2.55-1.19-4.25-1.19c-1.4,0-2.64.21-3.72.62-1.08.41-2.01.96-2.79,1.64s-1.4,1.48-1.87,2.38c-.47.91-.78,1.86-.94,2.88-.16.99-.15,1.93.04,2.83.19.9.57,1.71,1.13,2.4.56.7,1.32,1.25,2.26,1.66.94.41,2.12.62,3.51.62,1.7,0,3.25-.4,4.64-1.19,1.4-.79,2.52-1.81,3.37-3.04.27-.55.49-1.09.64-1.62.15-.53.27-1.05.35-1.54.14-.96.18-1.77.12-2.42-.03-.36-.05-.68-.08-.99Z"/>
    <path class="cls-1" d="M479.28,120.62c-.11.6-.4,1.1-.86,1.5-.47.4-.99.59-1.56.59h-.25c-.58,0-1.04-.2-1.38-.62-.34-.41-.47-.9-.39-1.48l1.81-11.34c.08-.52.12-1.07.12-1.64s-.14-1.11-.41-1.6c-.27-.49-.71-.9-1.32-1.21-.6-.32-1.46-.47-2.59-.47-.68,0-1.4.16-2.14.49-.74.33-1.43.75-2.08,1.27-.64.52-1.2,1.09-1.66,1.71-.47.62-.74,1.23-.82,1.83l-1.73,10.97c-.11.6-.4,1.1-.86,1.5-.47.4-.99.59-1.56.59h-.25c-.57,0-1.04-.2-1.38-.62-.34-.41-.47-.9-.39-1.48l1.85-11.67c.08-.52.12-1.06.1-1.62-.01-.56-.15-1.07-.41-1.52-.26-.45-.7-.82-1.32-1.11-.62-.29-1.49-.43-2.61-.43-.77,0-1.54.17-2.3.51-.77.34-1.46.78-2.08,1.32-.62.53-1.14,1.12-1.56,1.74-.42.63-.68,1.25-.76,1.85l-1.73,10.93c-.08.58-.37,1.07-.86,1.48-.49.41-1.01.62-1.56.62h-.25c-.57,0-1.03-.2-1.38-.62-.34-.41-.47-.9-.39-1.48l2.92-18.37c.11-.6.4-1.1.86-1.5s.99-.6,1.56-.6h.25c.57,0,1.04.21,1.4.62.36.41.48.91.37,1.48l-.16.94c.96-.99,1.93-1.78,2.92-2.38.99-.6,2.15-.91,3.49-.91s2.38.09,3.2.27c.82.18,1.5.42,2.03.72.53.3.96.64,1.27,1.03.31.38.62.78.92,1.19.96-.99,2.1-1.77,3.41-2.34,1.32-.57,2.64-.86,3.98-.86,2.03,0,3.64.24,4.83.72,1.19.48,2.08,1.14,2.67,1.99.59.85.92,1.84.98,2.98s0,2.36-.18,3.68l-1.81,11.34Z"/>
    <path class="cls-1" d="M508.08,109.28c-.08.63-.28,1.2-.6,1.71-.31.51-.7.94-1.17,1.29s-.99.64-1.58.84c-.59.21-1.19.31-1.79.31h-14.67c.16,1.73.91,3.06,2.24,4.01,1.33.94,2.98,1.42,4.95,1.42.74,0,1.49-.07,2.26-.23.77-.15,1.51-.34,2.22-.57.71-.23,1.38-.49,1.99-.78.62-.29,1.16-.55,1.62-.8.38-.22.77-.33,1.15-.33.63,0,1.14.19,1.52.58s.52.89.41,1.52c-.14.85-.7,1.57-1.69,2.16-.98.59-2.12,1.08-3.39,1.46s-2.55.66-3.82.84c-1.28.18-2.27.27-2.98.27-1.75,0-3.35-.25-4.79-.76-1.44-.51-2.65-1.25-3.64-2.24-.99-.98-1.69-2.21-2.12-3.68s-.49-3.16-.18-5.07c.3-1.92.9-3.61,1.79-5.08.89-1.46,1.99-2.69,3.29-3.68,1.3-.99,2.75-1.73,4.36-2.24,1.6-.51,3.28-.76,5.03-.76s3.16.23,4.46.68c1.3.45,2.37,1.09,3.2,1.93.84.83,1.43,1.86,1.77,3.08.34,1.22.39,2.59.14,4.13ZM503.48,108.04c.11-.82,0-1.52-.31-2.1-.32-.57-.75-1.04-1.3-1.4-.55-.36-1.18-.61-1.89-.76s-1.4-.23-2.05-.23c-.99,0-1.95.14-2.88.41-.93.27-1.79.67-2.57,1.19s-1.48,1.14-2.1,1.85c-.62.71-1.1,1.51-1.46,2.38h13.43c.41,0,.68-.12.82-.37.14-.25.23-.57.29-.99Z"/>
    <path class="cls-1" d="M528.59,102.37c-.08.52-.25.92-.51,1.19-.26.27-.54.48-.84.62-.33.16-.7.26-1.11.29-1.2,0-2.29.18-3.27.53s-1.82.8-2.53,1.33c-.71.53-1.28,1.1-1.71,1.71-.42.6-.68,1.15-.76,1.64l-1.73,10.93c-.08.58-.37,1.07-.86,1.48-.49.41-1.01.62-1.56.62h-.29c-.58,0-1.04-.2-1.38-.62-.34-.41-.47-.9-.39-1.48l2.92-18.37c.11-.6.4-1.1.86-1.5s.99-.6,1.56-.6h.25c.58,0,1.04.21,1.4.62.35.41.48.91.37,1.48l-.16.94c1.12-1.15,2.18-1.98,3.18-2.49,1-.51,2.23-.76,3.68-.76h.57c.19,0,.4.01.62.04.58.06,1.03.27,1.36.66s.45.86.37,1.44l-.04.29Z"/>
    <path class="cls-1" d="M550.61,120.62c-.08.58-.36,1.07-.84,1.48-.48.41-1.01.62-1.58.62h-.25c-.57,0-1.03-.21-1.35-.64s-.47-.91-.41-1.46l.04-.33c-1.12.82-2.34,1.47-3.64,1.95s-2.66.72-4.09.72c-2.16,0-3.99-.32-5.49-.97-1.49-.64-2.68-1.5-3.55-2.59-.88-1.08-1.47-2.33-1.77-3.76-.3-1.42-.33-2.9-.08-4.44.25-1.56.74-3.05,1.48-4.48.74-1.42,1.72-2.67,2.94-3.74,1.22-1.07,2.68-1.92,4.38-2.57,1.7-.64,3.64-.97,5.83-.97,1.42,0,2.71.24,3.86.72,1.15.48,2.15,1.13,3,1.95l.08-.53c.08-.57.36-1.07.84-1.48.48-.41,1.01-.62,1.58-.62h.25c.58,0,1.04.2,1.4.6.36.4.48.9.37,1.5l-3,19.02ZM548.19,107.92c-.47-1.23-1.27-2.25-2.4-3.04s-2.55-1.19-4.25-1.19c-1.4,0-2.64.21-3.72.62-1.08.41-2.01.96-2.79,1.64s-1.4,1.48-1.87,2.38c-.47.91-.78,1.86-.94,2.88-.16.99-.15,1.93.04,2.83.19.9.57,1.71,1.13,2.4.56.7,1.32,1.25,2.26,1.66.94.41,2.12.62,3.51.62,1.7,0,3.25-.4,4.64-1.19,1.4-.79,2.52-1.81,3.37-3.04.27-.55.49-1.09.64-1.62.15-.53.27-1.05.35-1.54.14-.96.18-1.77.12-2.42-.03-.36-.05-.68-.08-.99Z"/>
    <path class="cls-1" d="M581.88,106.85c-.14.9-.38,1.63-.72,2.18-.34.55-.84,1.02-1.5,1.42s-1.51.78-2.55,1.15c-1.04.37-2.33.81-3.86,1.33l-12.41,4.36c-.22.08-.33.16-.33.25v.1s.05.06.16.06h17.79c.66,0,1.17.23,1.54.7.37.47.5,1.01.39,1.64l.04-.08c-.14.66-.47,1.21-.99,1.67-.52.45-1.08.68-1.68.68h-20.59c-.3,0-.61-.06-.92-.18-.31-.12-.59-.29-.82-.49-.23-.21-.41-.45-.53-.72-.12-.27-.16-.56-.1-.86l.29-1.89c.08-.44.2-.88.35-1.34.15-.45.49-.92,1.03-1.4.53-.48,1.33-1,2.38-1.56s2.53-1.17,4.42-1.83l13.52-4.81c.14-.05.24-.14.31-.25.07-.11.12-.23.14-.37.03-.41-.12-.78-.45-1.11s-.79-.62-1.38-.86c-.59-.25-1.28-.44-2.08-.57s-1.64-.21-2.55-.21c-.63,0-1.36.06-2.18.16-.82.11-1.65.26-2.49.45-.83.19-1.63.41-2.38.66-.75.25-1.38.49-1.87.74-.3.14-.64.2-1.03.2-.55,0-1.03-.2-1.44-.62s-.56-.96-.45-1.64c.05-.41.23-.8.51-1.17.29-.37.65-.66,1.09-.88,2.06-.99,4.03-1.65,5.94-1.99s3.54-.51,4.91-.51c1.84,0,3.44.23,4.83.7,1.38.47,2.51,1.06,3.39,1.79.88.73,1.51,1.54,1.89,2.44.38.9.51,1.79.37,2.67Z"/>
  </g>
</svg>